# xmcd CD database file
#
# Track frame offsets:
#	150
#	19731
#	40232
#	57266
#	80502
#	103528
#	128336
#	149125
#	171080
#	194929
#	216287
#	251894
#	270546
#	311914
#
# Disc length: 4678 seconds
#
# Revision: 0
# Processed by: cddbd v1.5.2PL0 Copyright (c) Steve Scherf et al.
# Submitted via: CDex 1.51
#
DISCID=d612440e
DTITLE=British Blues Quintet - Live In Glasgow
DYEAR=2007
DGENRE=Blues
TTITLE0=What You Got Is So Good
TTITLE1=As The Years Go Passing By
TTITLE2=San Francisco Bay Blues
TTITLE3=Tramp 'Em Up Solid
TTITLE4=It Never Rains But It Pours
TTITLE5=Wishing Well
TTITLE6=That's The Way I Feel
TTITLE7=Penicillin Blues
TTITLE8=Walkin' Blues
TTITLE9=I Wanna' Thank You Baby
TTITLE10=Fog On The Highway
TTITLE11=Houston
TTITLE12=I Just Wanna' Make Love To You
TTITLE13=Respect Yourself
EXTD=YEAR: 2007
EXTT0=
EXTT1=
EXTT2=
EXTT3=
EXTT4=
EXTT5=
EXTT6=
EXTT7=
EXTT8=
EXTT9=
EXTT10=
EXTT11=
EXTT12=
EXTT13=
PLAYORDER=
